<svg data-name="Ebene 1" viewBox="0 0 96 96" xmlns="http://www.w3.org/2000/svg"><path d="m87.92 54.2-9 3.46a20 20 0 0 0-3.84-5.5l6-9.11a3 3 0 1 0-5-3.3l-5.82 8.8a20 20 0 0 0-6.08-2V36.2a3 3 0 0 0-6 0v10.21a20.07 20.07 0 0 0-6.08 1.85l-5.6-8.51a3 3 0 1 0-5 3.3l5.7 8.64-.37.34A20.06 20.06 0 0 0 43 57.4l-8.32-3.2a3 3 0 0 0-2.16 5.6l8.71 3.35a19.64 19.64 0 0 0-.14 4.85H8a3 3 0 0 0 0 6h36.25a2.9 2.9 0 0 0 1 0H88a3 3 0 0 0 0-6h-7.29a19.92 19.92 0 0 0-.08-4.57l9.45-3.63a3 3 0 0 0-2.16-5.6ZM47.13 68a13.9 13.9 0 1 1 27.54 0Z" fill="#292828" class="fill-000000"></path></svg>